{"title":"Arthur Christmas 2011 720p TS  XViD - INSPiRAL","uid":6900626,"size":2748122853,"categoryP":"video","categoryS":"hd___movies","magnet":"?xt=urn:btih:3302db45729cb76b25a8dc1150e1c55981170896&amp;dn=Arthur+Christmas+2011+720p+TS++XViD+-+INSPiRAL&amp;tr=udp%3A%2F%2Ftracker.openbittorrent.com%3A80&amp;tr=udp%3A%2F%2Fopen.demonii.com%3A1337&amp;tr=udp%3A%2F%2Ftracker.coppersurfer.tk%3A6969&amp;tr=udp%3A%2F%2Fexodus.desync.com%3A6969","seeders":0,"leechers":1,"uploader":"TvTeam","files":5,"time":1324382254,"description":". \n &lt;a href=&quot;\nhttp://www.torrenting.com&quot; rel=&quot;nofollow&quot; target=&quot;_NEW&quot;&gt;\nhttp://www.torrenting.com&lt;/a&gt;          :     Once &amp; For all ;)\n\n\n               www . Torrenting . Com \n\n(((((((((((((= Enjoy No RAR releases =))))))))))))))))))))\n\n\n...................................NFO:....................................\n\n.ooooo oooo   oooo oooooooo8 oooooooooo  o88   oooooooooo       o      ooooo       \n 888   8888o  88 888         888    888 oooo   888    888     888      888        \n 888   88 888o88  888oooooo  888oooo88   888   888oooo88     8  88     888        \n 888   88   8888         888 888         888   888  88o     8oooo88    888      o \no888o o88o    88 o88oooo888 o888o       o888o o888o  88o8 o88o  o888o o888ooooo88 \n\n \nTITLE: \n\nArthur Christmas 2011 720p TS  XViD - INSPiRAL\n\nIMDB: \n\nwww.imdb.com/title/tt1430607/\n\n\nSOURCES:\n\nVIDEO - Arthur Christmas 2011 720p - ILLUMINATI\nAUDIO - Arthur Christmas 2011 720p TS XviD 5 1 AC3 - ILLUMINATI\nSUBS - NONE ADDED\n\nSTATS:\n\nVideo\nID                               : 0\nFormat                           : MPEG-4 Visual\nFormat profile                   : Advanced Simple@L5\nFormat settings, BVOP            : 2\nFormat settings, QPel            : No\nFormat settings, GMC             : No warppoints\nFormat settings, Matrix          : Default (H.263)\nMuxing mode                      : Packed bitstream\nCodec ID                         : XVID\nCodec ID/Hint                    : XviD\nDuration                         : 1h 31mn\nBit rate                         : 3 519 Kbps\nWidth                            : 1 280 pixels\nHeight                           : 576 pixels\nDisplay aspect ratio             : 2.222\nFrame rate                       : 24.000 fps\nColor space                      : YUV\nChroma subsampling               : 4:2:0\nBit depth                        : 8 bits\nScan type                        : Progressive\nCompression mode                 : Lossy\nBits/(Pixel*Frame)               : 0.199\nStream size                      : 2.25 GiB (90%)\nWriting library                  : XviD 64\n\nAudio\nID                               : 1\nFormat                           : AC-3\nFormat/Info                      : Audio Coding 3\nMode extension                   : CM (complete main)\nCodec ID                         : 2000\nDuration                         : 1h 31mn\nBit rate mode                    : Constant\nBit rate                         : 384 Kbps\nChannel(s)                       : 6 channels\nChannel positions                : Front: L C R, Side: L R, LFE\nSampling rate                    : 48.0 KHz\nBit depth                        : 16 bits\nCompression mode                 : Lossy\nStream size                      : 251 MiB (10%)\nAlignment                        : Aligned on interleaves\nInterleave, duration             : 42 ms (1.00 video frame)\nInterleave, preload duration     : 512 ms\n\n\nNOTES:\n\nTook a 720p file we were given and resized it and ran some filters over it as it was a little dull looking but still\na awesome cam.\nAudio just stripped and remuxed......check sample for Q.\nShouts out the one who busted their balls getting this ....thank you.\n\n\nSCREENS:\n\n[IMG]http://i.imgur.com/E8Gr4.png[/IMG]\n[IMG]http://i.imgur.com/Aaxec.png[/IMG]\n[IMG]http://i.imgur.com/ILIgp.png[/IMG]\n[IMG]http://i.imgur.com/jk1KJ.jpg[/IMG]\n\nGREETZ: \n\nPast,Present and Future","torrent":{"xt":"urn:btih:3302db45729cb76b25a8dc1150e1c55981170896","amp;dn":"Arthur+Christmas+2011+720p+TS++XViD+-+INSPiRAL","amp;tr":["udp%3A%2F%2Ftracker.openbittorrent.com%3A80","udp%3A%2F%2Fopen.demonii.com%3A1337","udp%3A%2F%2Ftracker.coppersurfer.tk%3A6969","udp%3A%2F%2Fexodus.desync.com%3A6969"],"infoHash":"3302db45729cb76b25a8dc1150e1c55981170896","infoHashBuffer":{"type":"Buffer","data":[51,2,219,69,114,156,183,107,37,168,220,17,80,225,197,89,129,23,8,150]},"announce":[],"urlList":[]}}